<svg xmlns="http://www.w3.org/2000/svg" width="33.343" height="29.833" viewBox="0 0 33.343 29.833">
  <path id="photo_camera_24dp_FILL0_wght300_GRAD0_opsz24" d="M116.672-796.107a6.969,6.969,0,0,0,5.121-2.1,6.969,6.969,0,0,0,2.1-5.121,6.969,6.969,0,0,0-2.1-5.121,6.969,6.969,0,0,0-5.121-2.1,6.969,6.969,0,0,0-5.121,2.1,6.969,6.969,0,0,0-2.1,5.121,6.969,6.969,0,0,0,2.1,5.121A6.969,6.969,0,0,0,116.672-796.107Zm0-2.632a4.437,4.437,0,0,1-3.267-1.323,4.437,4.437,0,0,1-1.323-3.267A4.437,4.437,0,0,1,113.4-806.6a4.437,4.437,0,0,1,3.267-1.323,4.437,4.437,0,0,1,3.267,1.323,4.437,4.437,0,0,1,1.323,3.267,4.437,4.437,0,0,1-1.323,3.267A4.437,4.437,0,0,1,116.672-798.739Zm-13.5,8.572a3.062,3.062,0,0,1-2.251-.921,3.062,3.062,0,0,1-.921-2.251v-19.979a3.062,3.062,0,0,1,.921-2.251,3.062,3.062,0,0,1,2.251-.921h5.359l2.295-2.487a3.1,3.1,0,0,1,1.045-.749,3.132,3.132,0,0,1,1.291-.273h7.02a3.132,3.132,0,0,1,1.291.273,3.1,3.1,0,0,1,1.045.749l2.295,2.487h5.359a3.062,3.062,0,0,1,2.251.921,3.062,3.062,0,0,1,.921,2.251v19.979a3.062,3.062,0,0,1-.921,2.251,3.062,3.062,0,0,1-2.251.921Zm0-2.632h27a.526.526,0,0,0,.388-.152.526.526,0,0,0,.152-.388v-19.979a.526.526,0,0,0-.152-.388.526.526,0,0,0-.388-.152h-6.534l-3.22-3.51h-7.492l-3.22,3.51h-6.534a.526.526,0,0,0-.388.152.526.526,0,0,0-.152.388v19.979a.526.526,0,0,0,.152.388A.526.526,0,0,0,103.172-792.8ZM116.672-803.328Z" transform="translate(-100 820)" fill="#fff"/>
</svg>
