<svg xmlns="http://www.w3.org/2000/svg" width="25.393" height="30.471" viewBox="0 0 25.393 30.471">
  <path id="community_ico4" d="M185.729-832.914v1.6a1.726,1.726,0,0,1-.523,1.268,1.729,1.729,0,0,1-1.27.522,1.723,1.723,0,0,1-1.268-.522,1.729,1.729,0,0,1-.521-1.268v-2.819a6.128,6.128,0,0,1-1.472-1.7,4.634,4.634,0,0,1-.677-2.476v-15.757a4.711,4.711,0,0,1,3.055-4.5Q186.11-860,192.7-860q6.824,0,9.76,1.37a4.686,4.686,0,0,1,2.937,4.554v15.757a4.634,4.634,0,0,1-.677,2.476,6.129,6.129,0,0,1-1.472,1.7v2.819a1.726,1.726,0,0,1-.523,1.268,1.73,1.73,0,0,1-1.27.522,1.724,1.724,0,0,1-1.268-.522,1.729,1.729,0,0,1-.521-1.268v-1.6Zm7.019-22.4h0Zm6.719,11.394h0Zm-16.928-2.539h20.314v-6.316H182.539Zm4.236,8.985a2.125,2.125,0,0,0,1.567-.647,2.144,2.144,0,0,0,.643-1.57,2.125,2.125,0,0,0-.647-1.567,2.144,2.144,0,0,0-1.571-.643,2.125,2.125,0,0,0-1.567.647,2.144,2.144,0,0,0-.643,1.571,2.125,2.125,0,0,0,.647,1.567A2.144,2.144,0,0,0,186.775-837.472Zm11.85,0a2.125,2.125,0,0,0,1.567-.647,2.144,2.144,0,0,0,.643-1.57,2.125,2.125,0,0,0-.647-1.567,2.144,2.144,0,0,0-1.571-.643,2.125,2.125,0,0,0-1.567.647,2.144,2.144,0,0,0-.643,1.571,2.125,2.125,0,0,0,.647,1.567A2.145,2.145,0,0,0,198.625-837.472Zm-15.617-17.84h19.481a4.1,4.1,0,0,0-2.722-1.581,30.813,30.813,0,0,0-7.019-.568,29.041,29.041,0,0,0-6.941.594A4.718,4.718,0,0,0,183.008-855.312Zm2.917,19.858h13.543a3.26,3.26,0,0,0,2.391-.994,3.26,3.26,0,0,0,.995-2.391v-5.079H182.539v5.079a3.26,3.26,0,0,0,.995,2.391A3.26,3.26,0,0,0,185.925-835.454Z" transform="translate(-180 860)" fill="#fff" opacity="0.8"/>
</svg>
