<svg xmlns="http://www.w3.org/2000/svg" width="30.333" height="26.687" viewBox="0 0 30.333 26.687">
  <path id="community_ico1" d="M54.4-819.924a1.988,1.988,0,0,1-1.674-.841,2.256,2.256,0,0,1-.4-1.907,27.662,27.662,0,0,0,.638-4.018q.168-2.016.217-4.059a4.412,4.412,0,0,1-2.331-1.806A5.179,5.179,0,0,1,50-835.443v-.689a2.1,2.1,0,0,1,.395-1.244,2.322,2.322,0,0,1,1.049-.818,33.636,33.636,0,0,0,6.551-3.4,54.256,54.256,0,0,0,5.856-4.527,2.017,2.017,0,0,1,.619-.367,2.033,2.033,0,0,1,.7-.118,2.033,2.033,0,0,1,.7.118,2.017,2.017,0,0,1,.619.367,54.256,54.256,0,0,0,5.856,4.527,33.635,33.635,0,0,0,6.551,3.4,2.322,2.322,0,0,1,1.049.818,2.1,2.1,0,0,1,.395,1.244v.689a5.179,5.179,0,0,1-.844,2.888,4.412,4.412,0,0,1-2.331,1.806q.049,2.043.217,4.059a27.659,27.659,0,0,0,.638,4.018,2.256,2.256,0,0,1-.4,1.907,1.988,1.988,0,0,1-1.674.841Zm.646-17.635H75.292a40.369,40.369,0,0,1-5.3-3.1,49.269,49.269,0,0,1-4.823-3.808,49.266,49.266,0,0,1-4.823,3.808A40.369,40.369,0,0,1,55.041-837.559Zm13.653,4.938a2.2,2.2,0,0,0,1.777-.841,3.021,3.021,0,0,0,.692-1.98H66.225a3.021,3.021,0,0,0,.692,1.98A2.2,2.2,0,0,0,68.694-832.621Zm-7.054,0a2.2,2.2,0,0,0,1.777-.841,3.021,3.021,0,0,0,.692-1.98H59.17a3.021,3.021,0,0,0,.692,1.98A2.2,2.2,0,0,0,61.639-832.621Zm-7.054,0a2.2,2.2,0,0,0,1.777-.841,3.021,3.021,0,0,0,.692-1.98H52.116a3.021,3.021,0,0,0,.692,1.98A2.2,2.2,0,0,0,54.585-832.621Zm-.25,10.581h4.547q.345-2.252.528-4.475T59.686-831a3.624,3.624,0,0,1-.883-.554,3.737,3.737,0,0,1-.691-.781,4.183,4.183,0,0,1-1.217,1.165,4.156,4.156,0,0,1-1.6.6q-.071,2.173-.261,4.3a29.221,29.221,0,0,1-.694,4.23Zm6.685,0h8.291q-.323-2.116-.5-4.226t-.265-4.261a3.953,3.953,0,0,1-1.943-.5,4.007,4.007,0,0,1-1.443-1.343,4.007,4.007,0,0,1-1.443,1.343,3.953,3.953,0,0,1-1.943.5q-.092,2.152-.265,4.261T61.021-822.04Zm10.429,0H76a29.221,29.221,0,0,1-.694-4.23q-.19-2.127-.261-4.3a4.309,4.309,0,0,1-1.618-.6,3.649,3.649,0,0,1-1.2-1.2,3.328,3.328,0,0,1-.677.795,3.858,3.858,0,0,1-.9.567q.092,2.265.286,4.489T71.45-822.04Zm4.3-10.581a2.2,2.2,0,0,0,1.777-.841,3.021,3.021,0,0,0,.692-1.98H73.279a3.021,3.021,0,0,0,.692,1.98A2.2,2.2,0,0,0,75.748-832.621Z" transform="translate(-50 846.61)" fill="#fff" opacity="0.8"/>
</svg>
