<svg xmlns="http://www.w3.org/2000/svg" width="21.061" height="29.335" viewBox="0 0 21.061 29.335">
  <path id="community_ico3" d="M178.959-859.672v-9.2a1.09,1.09,0,0,1,.325-.8,1.092,1.092,0,0,1,.8-.325,1.09,1.09,0,0,1,.8.325,1.091,1.091,0,0,1,.324.8v9.2H183.3v-9.2a1.091,1.091,0,0,1,.324-.8,1.092,1.092,0,0,1,.8-.325,1.09,1.09,0,0,1,.8.325,1.092,1.092,0,0,1,.324.8v9.2A5.152,5.152,0,0,1,184.3-856.2a5.521,5.521,0,0,1-3.085,1.853v12.55a1.091,1.091,0,0,1-.325.8,1.092,1.092,0,0,1-.8.324,1.09,1.09,0,0,1-.8-.324,1.091,1.091,0,0,1-.324-.8v-12.55a5.521,5.521,0,0,1-3.085-1.853,5.152,5.152,0,0,1-1.254-3.476v-9.2a1.091,1.091,0,0,1,.325-.8,1.091,1.091,0,0,1,.8-.325,1.09,1.09,0,0,1,.8.325,1.092,1.092,0,0,1,.324.8v9.2Zm14.465,6.972h-2.746a1.317,1.317,0,0,1-.973-.391,1.32,1.32,0,0,1-.389-.969v-8.795a8.013,8.013,0,0,1,1.64-4.99Q192.6-870,194.289-870a1.252,1.252,0,0,1,1.013.454,1.719,1.719,0,0,1,.379,1.14v26.613a1.091,1.091,0,0,1-.325.8,1.091,1.091,0,0,1-.8.324,1.091,1.091,0,0,1-.8-.324,1.091,1.091,0,0,1-.324-.8Z" transform="translate(-174.62 870)" fill="#fff" opacity="0.8"/>
</svg>
