<svg xmlns="http://www.w3.org/2000/svg" width="29.631" height="22.542" viewBox="0 0 29.631 22.542">
  <path id="community_ico2" d="M79.518-778.768a2.527,2.527,0,0,1-1.854-.769,2.528,2.528,0,0,1-.769-1.855v-10.586l-3.405,2.562a1.189,1.189,0,0,1-.809.224.963.963,0,0,1-.706-.423,1.111,1.111,0,0,1-.227-.81,1,1,0,0,1,.434-.706L84.955-800.8a2.544,2.544,0,0,1,.762-.386,2.823,2.823,0,0,1,.834-.124,2.823,2.823,0,0,1,.834.124,2.544,2.544,0,0,1,.762.386l4.46,3.363v-1.328a1.71,1.71,0,0,1,.516-1.256,1.71,1.71,0,0,1,1.256-.516,1.709,1.709,0,0,1,1.256.516,1.71,1.71,0,0,1,.516,1.256v4.024l4.784,3.612a1.064,1.064,0,0,1,.423.706,1.069,1.069,0,0,1-.216.809.963.963,0,0,1-.706.423,1.188,1.188,0,0,1-.809-.225l-3.4-2.562v10.586a2.528,2.528,0,0,1-.769,1.855,2.528,2.528,0,0,1-1.855.769h-2.8a2.527,2.527,0,0,1-1.854-.769,2.528,2.528,0,0,1-.769-1.855v-5.079a.434.434,0,0,0-.126-.321.434.434,0,0,0-.321-.126H85.379a.434.434,0,0,0-.321.126.434.434,0,0,0-.126.321v5.079a2.528,2.528,0,0,1-.769,1.855,2.527,2.527,0,0,1-1.854.769Zm0-2.177h2.791a.434.434,0,0,0,.321-.126.434.434,0,0,0,.126-.321v-5.079a2.527,2.527,0,0,1,.769-1.854,2.527,2.527,0,0,1,1.854-.769h2.345a2.527,2.527,0,0,1,1.854.769,2.527,2.527,0,0,1,.769,1.854v5.079a.434.434,0,0,0,.126.321.434.434,0,0,0,.321.126h2.8a.435.435,0,0,0,.321-.126.435.435,0,0,0,.126-.321v-12.227l-7.229-5.431a.429.429,0,0,0-.265-.084.429.429,0,0,0-.265.084l-7.214,5.431v12.227a.435.435,0,0,0,.126.321A.434.434,0,0,0,79.518-780.944Zm4.27-11.588h5.526a2.246,2.246,0,0,0-.829-1.793,2.9,2.9,0,0,0-1.934-.7,2.9,2.9,0,0,0-1.934.7,2.246,2.246,0,0,0-.829,1.793Zm-1.479,11.588a.434.434,0,0,0,.321-.126.434.434,0,0,0,.126-.321v-5.079a2.527,2.527,0,0,1,.769-1.854,2.527,2.527,0,0,1,1.854-.769h2.345a2.527,2.527,0,0,1,1.854.769,2.527,2.527,0,0,1,.769,1.854v5.079a.434.434,0,0,0,.126.321.434.434,0,0,0,.321.126.434.434,0,0,1-.321-.126.434.434,0,0,1-.126-.321v-5.079a2.527,2.527,0,0,0-.769-1.854,2.527,2.527,0,0,0-1.854-.769H85.379a2.527,2.527,0,0,0-1.854.769,2.527,2.527,0,0,0-.769,1.854v5.079a.434.434,0,0,1-.126.321A.434.434,0,0,1,82.309-780.944Z" transform="translate(-71.739 801.31)" fill="#fff" opacity="0.8"/>
</svg>
