<svg xmlns="http://www.w3.org/2000/svg" xmlns:xlink="http://www.w3.org/1999/xlink" width="223" height="37.4" viewBox="0 0 223 37.4">
  <defs>
    <clipPath id="clip-path">
      <rect id="사각형_21" data-name="사각형 21" width="142.176" height="37.4" fill="none"/>
    </clipPath>
  </defs>
  <g id="logo" transform="translate(-330 -34.172)">
    <g id="그룹_2" data-name="그룹 2" transform="translate(330 34.172)">
      <g id="그룹_1" data-name="그룹 1" transform="translate(0 0)" clip-path="url(#clip-path)">
        <path id="패스_1" data-name="패스 1" d="M53.1,18.7c0,10.328-11.886,18.7-26.55,18.7S0,29.028,0,18.7,11.886,0,26.546,0,53.1,8.374,53.1,18.7" transform="translate(0 0)" fill="#0d3896"/>
        <path id="패스_2" data-name="패스 2" d="M33.2,35.178c-11.354-.511-11.672-1.027-9.588-1.072,0,0,42.666-1.833,10.6-4.216,0,0-5.149-.411,8.615-.837,0,0,3.542-.622-14.826-1.864,0,0,3.67-1.672,15.86-1.193l-3.984-8.183s-.653-3.394-.934-4.53S37.927.453,37.927.453c-1.2.151-2.649.259-2.649.259C30.257.436,22.887,2.938,22.887,2.938l-1.653.336-.118,2.138A16.231,16.231,0,0,1,21.234,9.8c.1,1.894-2.455,6.151-2.455,6.151l1.583,4.543-.074,2.694,1.655,4.051s10.328,1.069,13.238.927c0,0,6.588.318-2.408.737,0,0-25.267-.1-18.616.955,0,0,11.885,1.021,18.112,1.452,0,0,6.86.8-10.765,1.836,0,0-8.26.634-.325,2.179,0,0,13.046,2.037,24.03.013,0,0,3.6-1.03-1.3-.563,0,0-9.541.455-10.706.4" transform="translate(-5.603 -0.195)" fill="#fff"/>
        <path id="패스_3" data-name="패스 3" d="M74.438,30.266s-7.616-.416-8.7,1.717c0,0-2.374,3.386,6.577,2.637,0,0-.647-2.349,2.119-4.355" transform="translate(-28.122 -12.989)" fill="#fc0"/>
        <path id="패스_4" data-name="패스 4" d="M42.927,23.62s-7.593-.427-8.672,1.769c0,0-2.368,3.483,6.558,2.71,0,0-.645-2.416,2.115-4.48" transform="translate(-14.595 -10.133)" fill="#40a629"/>
        <path id="패스_5" data-name="패스 5" d="M57.892,10.289S50.48,9.876,49.429,12c0,0-2.31,3.359,6.4,2.618,0,0-.63-2.334,2.062-4.325" transform="translate(-21.117 -4.406)" fill="#ff7f00"/>
        <path id="패스_6" data-name="패스 6" d="M117.506,19.27a2.336,2.336,0,0,1-1.865.933,2.3,2.3,0,0,1-1.846-.917,3.3,3.3,0,0,1,0-4.187,2.311,2.311,0,0,1,1.846-.9,2.418,2.418,0,0,1,1.865.853,3.058,3.058,0,0,1,.768,2.118,3.226,3.226,0,0,1-.768,2.1m17.227-1.076H130.64V11.921h-6.375v1.306h.629a1.188,1.188,0,0,1,.946.367,1.158,1.158,0,0,1,.314.758v9.013a7.981,7.981,0,0,1-1.448.275c-.568.06-1.414.091-2.191.091h-4.671V22.218a7.459,7.459,0,0,0,3.395-1.92,4.383,4.383,0,0,0,1.276-3.1,4.6,4.6,0,0,0-2.046-3.788,8.67,8.67,0,0,0-9.874,0,4.607,4.607,0,0,0-2.031,3.788,4.378,4.378,0,0,0,1.275,3.1,7.341,7.341,0,0,0,3.329,1.92v1.514h-6.345v2.6h14.433c1.113,0,2.217-.021,2.962-.064A10.5,10.5,0,0,0,126.154,26v3.432h4.486V20.753h4.094Zm-3.78,14.845H117.1a.525.525,0,0,1-.346-.1.351.351,0,0,1-.124-.287V27.861H110.1v1.305h.631a1.288,1.288,0,0,1,.942.314,1.031,1.031,0,0,1,.317.76v3.342a1.947,1.947,0,0,0,.63,1.607,3.021,3.021,0,0,0,1.921.509h16.416Z" transform="translate(-45.894 -5.099)" fill="#fff"/>
        <path id="패스_7" data-name="패스 7" d="M159.48,16.956a1.044,1.044,0,0,0-.307-.757,1.208,1.208,0,0,0-.909-.313h-.61V14.58h22.361v2.457H163.99v6.236a.467.467,0,0,0,.167.391.649.649,0,0,0,.411.131h15.6v2.4H162.975a4.03,4.03,0,0,1-2.66-.719,3.006,3.006,0,0,1-.835-2.39ZM171.994,32.7h10.6v2.584H156.822V32.7h10.661l-.035-2.609a.945.945,0,0,0-.289-.719,1.081,1.081,0,0,0-.775-.274H165.9V27.817h6.062Z" transform="translate(-67.376 -6.264)" fill="#fff"/>
        <path id="패스_8" data-name="패스 8" d="M211.82,28.088v5.64a.367.367,0,0,0,.12.287.5.5,0,0,0,.334.1H227.5v2.46H209.8a2.846,2.846,0,0,1-1.855-.51,1.984,1.984,0,0,1-.605-1.606v-4a1.045,1.045,0,0,0-.305-.758,1.216,1.216,0,0,0-.913-.313h-.606V28.088Zm14.442-5.615h3.367v2.612h-9.98v5.57h-4.692v-5.57h-11.4V22.472h18.254a3.836,3.836,0,0,0,.592-1.645,24.127,24.127,0,0,0,.106-2.524V16.841a.515.515,0,0,0-.12-.394.81.81,0,0,0-.487-.1H206.12V13.849h20.6a.34.34,0,0,1,.227.066.238.238,0,0,1,.075.194v3.868a20.782,20.782,0,0,1-.166,2.915,3.61,3.61,0,0,1-.593,1.579" transform="translate(-87.453 -5.95)" fill="#fff"/>
      </g>
    </g>
    <line id="선_1" data-name="선 1" y2="18.287" transform="translate(481.485 45.213)" fill="none" stroke="rgba(255,255,255,0.4)" stroke-width="1"/>
    <text id="청산도" transform="translate(489 63)" fill="#fff" font-size="22" font-family="S-CoreDream-4Regular, 'S-Core Dream \34 '"><tspan x="0" y="0">청산도</tspan></text>
  </g>
</svg>
