<svg xmlns="http://www.w3.org/2000/svg" width="11.148" height="11.148" viewBox="0 0 11.148 11.148">
  <path id="more_w" d="M224.931-733.783h-4.288a.622.622,0,0,1-.458-.185.623.623,0,0,1-.185-.458.621.621,0,0,1,.185-.458.622.622,0,0,1,.458-.185h4.288v-4.288a.622.622,0,0,1,.185-.458.622.622,0,0,1,.458-.185.621.621,0,0,1,.458.185.622.622,0,0,1,.185.458v4.288h4.288a.622.622,0,0,1,.458.185.622.622,0,0,1,.185.458.621.621,0,0,1-.185.458.622.622,0,0,1-.458.185h-4.288v4.288a.622.622,0,0,1-.185.458.623.623,0,0,1-.458.185.621.621,0,0,1-.458-.185.622.622,0,0,1-.185-.458Z" transform="translate(-220 740)" fill="#fff"/>
</svg>
