<svg width="24" height="24" viewBox="0 0 24 24" fill="none" xmlns="http://www.w3.org/2000/svg">
<mask id="mask0_23_1333" style="mask-type:alpha" maskUnits="userSpaceOnUse" x="0" y="0" width="24" height="24">
<rect width="24" height="24" fill="#D9D9D9"/>
</mask>
<g mask="url(#mask0_23_1333)">
<path d="M7.327 9.05775V7.55775H20.5V9.05775H7.327ZM7.327 12.75V11.25H20.5V12.75H7.327ZM7.327 16.4423V14.9423H20.5V16.4423H7.327ZM4.30775 9.1155C4.07892 9.1155 3.88708 9.03717 3.73225 8.8805C3.57742 8.72383 3.5 8.52967 3.5 8.298C3.5 8.072 3.57742 7.8825 3.73225 7.7295C3.88708 7.5765 4.07892 7.5 4.30775 7.5C4.53658 7.5 4.72842 7.5765 4.88325 7.7295C5.03808 7.8825 5.1155 8.072 5.1155 8.298C5.1155 8.52967 5.03808 8.72383 4.88325 8.8805C4.72842 9.03717 4.53658 9.1155 4.30775 9.1155ZM4.30775 12.798C4.07892 12.798 3.88708 12.7215 3.73225 12.5685C3.57742 12.4157 3.5 12.2262 3.5 12C3.5 11.7615 3.57742 11.5657 3.73225 11.4125C3.88708 11.2593 4.07892 11.1827 4.30775 11.1827C4.53658 11.1827 4.72842 11.2593 4.88325 11.4125C5.03808 11.5657 5.1155 11.7615 5.1155 12C5.1155 12.2262 5.03808 12.4157 4.88325 12.5685C4.72842 12.7215 4.53658 12.798 4.30775 12.798ZM4.30775 16.5C4.07892 16.5 3.88708 16.4217 3.73225 16.265C3.57742 16.1083 3.5 15.9142 3.5 15.6827C3.5 15.4566 3.57742 15.267 3.73225 15.114C3.88708 14.961 4.07892 14.8845 4.30775 14.8845C4.53658 14.8845 4.72842 14.961 4.88325 15.114C5.03808 15.267 5.1155 15.4566 5.1155 15.6827C5.1155 15.9142 5.03808 16.1083 4.88325 16.265C4.72842 16.4217 4.53658 16.5 4.30775 16.5Z" fill="white"/>
</g>
</svg>
