<svg width="173" height="67" viewBox="0 0 173 67" fill="none" xmlns="http://www.w3.org/2000/svg">
<g clip-path="url(#clip0_13_286)">
<path d="M35.6162 43.1138C32.4667 43.1179 29.874 45.5934 29.874 48.6908C29.874 51.7883 32.4667 54.2387 35.6162 54.247C38.7947 54.2345 41.3666 51.7591 41.3666 48.6908C41.3666 45.6226 38.7947 43.1179 35.6162 43.1138ZM35.5372 51.7048C33.8919 51.7048 32.6454 50.3523 32.6454 48.695C32.6454 47.0378 33.975 45.656 35.612 45.656C37.2491 45.656 38.533 47.0044 38.533 48.695C38.533 50.3857 37.1867 51.7048 35.5331 51.7048H35.5372Z" fill="white"/>
<path d="M9.25724 39.2733C10.1381 40.1457 11.1436 40.9055 12.1283 41.3981L12.2322 41.4523L13.9274 39.4361L13.7654 39.3442C12.1532 38.4676 10.8901 37.3614 10.0675 35.9629C9.24893 34.5895 8.82928 32.9866 8.82928 31.0788V29.2838H5.79616V30.8868C5.79616 32.9573 5.32665 34.5854 4.45411 36.013C3.47354 37.591 2.02346 38.8642 0.166194 40.0414L0.00415039 40.1416L1.84895 42.0576L1.94867 41.9992C3.04142 41.3981 4.20481 40.4755 5.21862 39.4486C6.09532 38.5511 6.85568 37.5826 7.31272 36.6684C7.7573 37.5618 8.44287 38.476 9.2614 39.2608L9.25724 39.2733Z" fill="white"/>
<path d="M5.979 52.9321H18.6849V44.2117H5.979V52.9321ZM8.83346 46.6746H15.8263V50.4734H8.82931V46.6746H8.83346Z" fill="white"/>
<path d="M18.7306 28.7704H15.9094V43.214H18.7306V36.8229H22.0421V34.2556H18.7306V28.7704Z" fill="white"/>
<path d="M90.7859 40.0121C91.7124 40.822 92.7761 41.5024 93.7733 41.9407L93.8772 41.9908L95.402 39.9161L95.24 39.8368C93.7857 39.0854 92.4852 38.1587 91.5545 37.0316C90.603 35.8753 90.038 34.4852 90.038 32.807V32.3145H94.2386V29.8265H82.825V32.3145H87.0256V32.9114C87.0256 34.4351 86.5187 35.8586 85.6877 37.09C84.7072 38.5678 83.2737 39.7617 81.8859 40.5298L81.7031 40.63L83.577 42.5794L83.6809 42.5293C84.6947 41.9533 85.8082 41.0808 86.7639 40.104C87.5284 39.2983 88.2139 38.4467 88.6336 37.5993C89.1405 38.4217 89.9175 39.2482 90.7859 40.0163V40.0121Z" fill="white"/>
<path d="M111.22 46.733H121.491V52.9321H124.345V44.2659H111.22V46.733Z" fill="white"/>
<path d="M118.308 36.802C118.308 35.437 117.702 34.1804 116.796 33.2203H119.617V30.7616H114.232V28.0523H111.174V30.7616H105.661V33.2203H108.54C107.663 34.1804 107.048 35.4244 107.048 36.802C107.048 39.8452 109.546 42.3206 112.67 42.329C115.795 42.3206 118.308 39.8452 118.312 36.802H118.308ZM109.77 36.6893C109.77 35.0028 111.187 33.5751 112.666 33.5751C114.145 33.5751 115.558 35.0112 115.562 36.6893C115.562 38.3465 114.145 39.7784 112.666 39.7826C111.183 39.7784 109.77 38.3465 109.77 36.6893Z" fill="white"/>
<path d="M124.345 28.7704H121.524V43.2641H124.345V37.7329H127.661V35.1698H124.345V28.7704Z" fill="white"/>
<path d="M100.413 28.7704H97.5874V43.2641H100.413V36.8229H103.724V34.2556H100.413V28.7704Z" fill="white"/>
<path d="M164.619 39.6991H155.071V32.3938H162.347V29.8223H152.213V42.1954H164.619V39.6991Z" fill="white"/>
<path d="M39.0691 33.07H34.6274V35.6123H39.0691V43.7191H41.8945V28.7704H39.0691V33.07Z" fill="white"/>
<path d="M31.8893 39.649C32.7702 40.5214 33.7964 41.2812 34.7853 41.7946L34.8933 41.8572L36.5927 39.841L36.4265 39.745C34.8144 38.9017 33.5762 37.7955 32.7494 36.4179C31.9059 35.0529 31.4863 33.3915 31.4863 31.4796V29.288H28.4448V31.3001C28.4448 33.3706 27.9836 34.9944 27.1277 36.3971C26.1471 38.0042 24.6763 39.2816 22.8149 40.4546L22.657 40.5548L24.5059 42.4792L24.5973 42.4208C25.6943 41.8197 26.8286 40.9472 27.8382 39.9495C28.7482 39.0353 29.5127 38.046 29.9697 37.0858C30.406 37.9541 31.0749 38.8475 31.881 39.649H31.8893Z" fill="white"/>
<path d="M94.3508 43.1138C91.2013 43.1179 88.6086 45.5934 88.6045 48.6908C88.6086 51.7591 91.2013 54.2387 94.3508 54.247C97.5252 54.2345 100.101 51.7591 100.101 48.6908C100.101 45.6226 97.5252 43.1179 94.3508 43.1138ZM94.2677 51.7048C92.6265 51.7048 91.3758 50.3523 91.3758 48.695C91.3758 47.0378 92.7013 45.656 94.3508 45.656C96.0003 45.656 97.2676 47.0044 97.2717 48.695C97.2676 50.3523 95.9214 51.7048 94.2677 51.7048Z" fill="white"/>
<path d="M159.222 45.2344H156.364V52.9321H169.726V50.394H159.222V45.2344Z" fill="white"/>
<path d="M169.659 35.4662V28.7704H166.838V46.5911H169.659V38.0251H173V35.4662H169.659Z" fill="white"/>
<path d="M145.76 35.2992H143.384V29.1795H140.716V52.3101H143.384V38.0836H145.76V52.9321H148.532V28.7704H145.76V35.2992Z" fill="white"/>
<path d="M136.794 38.5052C136.158 37.1067 135.896 35.5497 135.896 33.6294V32.7152H139.1V30.1104H129.784V32.7152H133.092V33.6753C133.092 35.4912 132.855 36.9732 132.281 38.3507C131.621 39.9287 130.507 41.3563 128.733 42.8758L128.608 42.9927L130.362 44.7376L130.47 44.6542C131.351 43.9988 132.273 43.0512 133.046 42.0743C133.694 41.2478 134.243 40.3962 134.592 39.6448C134.945 40.3753 135.497 41.2144 136.141 41.9992C136.893 42.9176 137.737 43.79 138.547 44.3077L138.659 44.3828L140.134 42.6087L140.018 42.5001C138.431 41.11 137.446 39.8702 136.798 38.501L136.794 38.5052Z" fill="white"/>
<path d="M8.02747 61.2685C6.67295 60.7843 6.4195 60.4586 6.4195 59.8993C6.4195 59.3399 6.81006 58.8974 7.73662 58.8974C8.41388 58.8974 8.87092 59.1186 9.36121 59.5277L9.84318 58.9308C9.27396 58.4758 8.69226 58.2044 7.78648 58.2044C6.51922 58.2044 5.6633 58.8515 5.6633 59.9452C5.6633 60.9262 6.16189 61.3979 7.62028 61.9281C8.85846 62.3747 9.23656 62.7379 9.23656 63.3641C9.23656 64.0862 8.67564 64.5287 7.77401 64.5287C7.07598 64.5287 6.48598 64.2073 5.97492 63.7147L5.47217 64.2783C6.004 64.8168 6.83084 65.2175 7.74909 65.2175C9.16177 65.2175 9.99276 64.391 9.99276 63.3265C9.99276 62.262 9.53156 61.807 8.03162 61.2601L8.02747 61.2685Z" fill="white"/>
<path d="M13.0632 59.9118C12.4025 59.9118 11.8001 60.0746 11.3555 60.3167L11.6297 60.9095C12.0452 60.6673 12.4815 60.5171 13.0133 60.5171C13.7529 60.5171 14.1185 60.8844 14.1185 61.6483V62.2536C13.8194 62.0867 13.3623 61.9573 12.8471 61.9573C11.8416 61.9573 10.9026 62.4457 10.9026 63.5936C10.9026 64.8251 11.7377 65.2217 12.5272 65.2217C13.2543 65.2217 13.7529 64.8835 14.1144 64.4953V65.1173H14.8373V61.5607C14.8373 60.3751 14.1518 59.9118 13.0632 59.9118ZM14.1185 63.865C13.8111 64.2908 13.3125 64.6331 12.656 64.6331C12.0369 64.6331 11.6172 64.2991 11.6172 63.5394C11.6172 62.9007 12.066 62.5333 12.8097 62.5333C13.4288 62.5333 13.7861 62.646 14.1144 62.8297V63.8608L14.1185 63.865Z" fill="white"/>
<path d="M22.1293 62.1326V65.1173H22.8564V62.0073C22.8564 60.5171 22.2124 59.9118 21.1737 59.9118C20.351 59.9118 19.9355 60.2958 19.6363 60.7842C19.3953 60.2958 18.9591 59.9118 18.2444 59.9118C17.6419 59.9118 17.214 60.1998 16.9564 60.6423V60.0203H16.2251V65.1215H16.9564V62.1368C16.9564 61.0055 17.3926 60.5421 18.0907 60.5421C18.7887 60.5421 19.1834 60.9679 19.1834 62.1368V65.1215H19.9105V62.1368C19.9105 61.0055 20.351 60.5421 21.0407 60.5421C21.7761 60.5421 22.1334 60.9679 22.1334 62.1368L22.1293 62.1326Z" fill="white"/>
<path d="M25.7649 62.1576C24.9048 61.7652 24.6472 61.5941 24.6472 61.1641C24.6472 60.7968 24.9547 60.5296 25.4907 60.5296C26.0267 60.5296 26.3591 60.6757 26.7538 60.9888L27.161 60.4503C26.7746 60.1288 26.2344 59.9118 25.5322 59.9118C24.614 59.9118 23.9492 60.4336 23.9492 61.21C23.9492 62.0282 24.373 62.3371 25.391 62.7754C26.2884 63.1637 26.5917 63.3974 26.5917 63.8149C26.5917 64.3116 26.2635 64.6039 25.5655 64.6039C25.0627 64.6039 24.5891 64.3951 24.1819 64.0403L23.7539 64.5746C24.24 64.967 24.8467 65.2259 25.5447 65.2259C26.4255 65.2259 27.2856 64.7917 27.2856 63.7898C27.2856 62.8756 26.7247 62.5959 25.7649 62.1618V62.1576Z" fill="white"/>
<path d="M31.5279 62.9967C31.5279 64.1155 30.9711 64.5872 30.2731 64.5872C29.4546 64.5872 29.0682 64.0946 29.0682 62.9967V60.0161H28.3452V63.1219C28.3452 64.5872 29.0474 65.2175 30.1194 65.2175C30.7634 65.2175 31.2329 64.917 31.5238 64.4912V65.1131H32.2509V60.012H31.5238V62.9925L31.5279 62.9967Z" fill="white"/>
<path d="M37.3822 65.1173V62.0073C37.3822 60.5379 36.6759 59.9118 35.5998 59.9118C34.964 59.9118 34.4904 60.2082 34.2037 60.6423V60.0203H33.4724V65.1215H34.2037V62.1368C34.2037 61.0222 34.748 60.5421 35.4585 60.5421C36.2687 60.5421 36.6593 61.0389 36.6593 62.1368V65.1215H37.3864L37.3822 65.1173Z" fill="white"/>
<path d="M39.6674 66.4406L39.9001 66.9958C41.7864 66.9332 42.472 66.1985 42.472 64.6623V60.0161H41.749V60.588C41.3917 60.1789 40.9596 59.9118 40.3197 59.9118C39.2519 59.9118 38.4001 60.8385 38.4001 62.6502C38.4001 64.4619 39.2062 65.2217 40.2242 65.2217C40.9097 65.2217 41.3959 64.8835 41.7532 64.4953V64.7583C41.7532 65.9439 41.3668 66.3905 39.6716 66.4406H39.6674ZM40.4028 64.5913C39.6009 64.5913 39.1148 63.9234 39.1148 62.6419C39.1148 61.2685 39.5303 60.5421 40.3738 60.5421C40.9762 60.5421 41.4665 60.8844 41.7449 61.306V63.8566C41.3876 64.3075 40.943 64.5913 40.3987 64.5913H40.4028Z" fill="white"/>
<path d="M50.4788 61.6692C50.4788 59.3357 49.1699 58.313 47.3916 58.313H45.6008V65.1173H47.2545C49.0661 65.1173 50.4788 64.1363 50.4788 61.665V61.6692ZM46.357 59.0017H47.3334C48.8916 59.0017 49.7225 59.9577 49.7225 61.6943C49.7225 63.6521 48.8126 64.4285 47.3501 64.4285H46.3529V59.0017H46.357Z" fill="white"/>
<path d="M52.4149 60.6507V60.0203H51.6877V65.1215H52.4149V62.1284C52.4149 61.1516 52.8096 60.5881 53.5201 60.5881C53.8566 60.5881 54.081 60.6632 54.2804 60.7801L54.4633 60.0454C54.2929 59.9661 54.0478 59.9201 53.6738 59.9201C53.1295 59.9201 52.6434 60.2457 52.419 60.659L52.4149 60.6507Z" fill="white"/>
<path d="M58.8053 64.6331L58.4687 64.1071C58.0034 64.4202 57.6544 64.5913 57.0602 64.5913C56.2334 64.5913 55.7182 63.9025 55.6475 62.8172H59.0338C59.0587 62.6961 59.0671 62.5918 59.0671 62.4164C59.0671 60.9596 58.3482 59.9118 57.0228 59.9118C55.8137 59.9118 54.9246 60.9178 54.9246 62.5375C54.9246 64.5454 56.0547 65.2217 56.9854 65.2217C57.7499 65.2217 58.1987 65.0171 58.8094 64.6331H58.8053ZM57.0145 60.5379C57.9037 60.5379 58.3316 61.2267 58.3898 62.2202H55.6475C55.7306 61.0806 56.2583 60.5379 57.0145 60.5379Z" fill="white"/>
<path d="M61.481 65.2217C62.2082 65.2217 62.7109 64.8835 63.0682 64.4953V65.1173H63.7953V61.5607C63.7953 60.3751 63.1098 59.9118 62.0129 59.9118C61.3522 59.9118 60.7539 60.0746 60.3093 60.3167L60.5836 60.9095C60.9991 60.6673 61.4353 60.5171 61.9672 60.5171C62.7109 60.5171 63.0682 60.8844 63.0682 61.6483V62.2536C62.7732 62.0867 62.3162 61.9573 61.8093 61.9573C60.7996 61.9573 59.8564 62.4457 59.8564 63.5936C59.8564 64.8251 60.6916 65.2217 61.481 65.2217ZM61.7636 62.5375C62.3785 62.5375 62.74 62.6502 63.0682 62.8339V63.865C62.7608 64.2908 62.2663 64.6331 61.614 64.6331C60.9617 64.6331 60.5753 64.2991 60.5753 63.5394C60.5753 62.9007 61.024 62.5333 61.7677 62.5333L61.7636 62.5375Z" fill="white"/>
<path d="M71.0831 62.1326V65.1173H71.8061V62.0073C71.8061 60.5171 71.1621 59.9118 70.1234 59.9118C69.3007 59.9118 68.8852 60.2958 68.586 60.7842C68.345 60.2958 67.9129 59.9118 67.1941 59.9118C66.5916 59.9118 66.1678 60.1998 65.9061 60.6423V60.0203H65.1831V65.1215H65.9061V62.1368C65.9061 61.0055 66.3423 60.5421 67.0404 60.5421C67.7384 60.5421 68.1331 60.9679 68.1331 62.1368V65.1215H68.8561V62.1368C68.8561 61.0055 69.3007 60.5421 69.9904 60.5421C70.7217 60.5421 71.0831 60.9679 71.0831 62.1368V62.1326Z" fill="white"/>
<path d="M77.2367 61.2685C75.8822 60.7843 75.6329 60.4628 75.6329 59.8993C75.6329 59.3357 76.0193 58.8974 76.9458 58.8974C77.6273 58.8974 78.0802 59.1187 78.5704 59.5277L79.0524 58.935C78.4832 58.48 77.9015 58.2086 76.9957 58.2086C75.7284 58.2086 74.8767 58.8515 74.8767 59.9452C74.8767 60.9262 75.367 61.4021 76.8337 61.9239C78.0718 62.3747 78.4499 62.7337 78.4499 63.3641C78.4499 64.0821 77.889 64.5287 76.9874 64.5287C76.2894 64.5287 75.6994 64.2031 75.1841 63.7105L74.6814 64.2699C75.2132 64.8168 76.0401 65.2134 76.9542 65.2134C78.3627 65.2134 79.1978 64.3868 79.1978 63.3223C79.1978 62.2578 78.7366 61.8028 77.2367 61.256V61.2685Z" fill="white"/>
<path d="M82.2807 60.5421C82.7917 60.5421 83.1324 60.7258 83.4981 61.0597L83.9343 60.5129C83.5355 60.1622 83.0119 59.9118 82.3264 59.9118C81.2627 59.9118 80.1409 60.7049 80.1409 62.5959C80.1409 64.3743 81.1588 65.2259 82.2807 65.2259C82.9912 65.2259 83.4856 64.9545 83.9136 64.5162L83.4773 64.0528C83.1324 64.391 82.8 64.5955 82.3098 64.5955C81.4081 64.5955 80.8763 63.7898 80.8763 62.5333C80.8763 61.2768 81.4912 60.5421 82.2848 60.5421H82.2807Z" fill="white"/>
<path d="M87.0424 59.9118C86.4067 59.9118 85.9289 60.2082 85.638 60.6423V58.242H84.915V65.1215H85.638V62.1368C85.638 61.018 86.1948 60.5421 86.897 60.5421C87.7113 60.5421 88.0936 61.0347 88.0936 62.1368V65.1215H88.8207V62.0074C88.8207 60.5421 88.1144 59.9118 87.0382 59.9118H87.0424Z" fill="white"/>
<path d="M92.0615 59.9118C90.8275 59.9118 89.8386 60.8385 89.8386 62.5751C89.8386 64.3116 90.786 65.2259 92.0241 65.2259C93.2623 65.2259 94.2512 64.2657 94.2512 62.5333C94.2512 60.8009 93.2956 59.9118 92.0615 59.9118ZM92.0449 64.5955C91.1641 64.5955 90.5699 63.8984 90.5699 62.5542C90.5699 61.21 91.1641 60.5421 92.0449 60.5421C92.9258 60.5421 93.5199 61.2142 93.5199 62.5542C93.5199 63.8942 92.9216 64.5955 92.0449 64.5955Z" fill="white"/>
<path d="M96.0753 58.242H95.3481V65.1215H96.0753V58.242Z" fill="white"/>
<path d="M99.3908 59.9118C98.7343 59.9118 98.1318 60.0788 97.6914 60.3209L97.9615 60.9178C98.377 60.6715 98.8133 60.5254 99.3451 60.5254C100.089 60.5254 100.446 60.8969 100.446 61.6483V62.2578C100.147 62.0867 99.69 61.9614 99.1831 61.9614C98.1734 61.9614 97.2344 62.4498 97.2344 63.5978C97.2344 64.8335 98.0654 65.2259 98.859 65.2259C99.5861 65.2259 100.089 64.8919 100.446 64.4995V65.1215H101.173V61.5649C101.173 60.3751 100.488 59.9118 99.3908 59.9118ZM100.446 63.865C100.139 64.2908 99.6401 64.6331 98.9878 64.6331C98.3728 64.6331 97.9532 64.2991 97.9532 63.5435C97.9532 62.9007 98.4019 62.5417 99.1457 62.5417C99.7647 62.5417 100.122 62.6502 100.45 62.8339V63.865H100.446Z" fill="white"/>
<path d="M103.284 60.6506V60.0161H102.557V65.1215H103.284V62.1284C103.284 61.1558 103.679 60.5839 104.385 60.5839C104.726 60.5839 104.946 60.659 105.15 60.7759L105.332 60.037C105.162 59.9619 104.917 59.9118 104.543 59.9118C103.999 59.9118 103.513 60.2374 103.284 60.6506Z" fill="white"/>
<path d="M108.12 62.1576C107.256 61.7652 106.999 61.5899 106.999 61.1599C106.999 60.7926 107.31 60.5254 107.842 60.5254C108.374 60.5254 108.715 60.6757 109.109 60.9846L109.516 60.4503C109.126 60.1288 108.59 59.9076 107.892 59.9076C106.969 59.9076 106.305 60.4294 106.305 61.21C106.305 62.0282 106.733 62.3371 107.751 62.7713C108.648 63.1595 108.951 63.3933 108.951 63.8107C108.951 64.3116 108.619 64.5997 107.929 64.5997C107.422 64.5997 106.949 64.391 106.541 64.0361L106.118 64.5705C106.6 64.9629 107.21 65.2217 107.908 65.2217C108.785 65.2217 109.649 64.7875 109.649 63.7857C109.649 62.8673 109.088 62.5918 108.129 62.1535L108.12 62.1576Z" fill="white"/>
<path d="M112.953 59.9118C112.313 59.9118 111.839 60.2082 111.548 60.6423V58.242H110.825V65.1215H111.548V62.1368C111.548 61.018 112.101 60.5421 112.807 60.5421C113.617 60.5421 114.004 61.0347 114.004 62.1368V65.1215H114.731V62.0074C114.731 60.5421 114.025 59.9118 112.953 59.9118Z" fill="white"/>
<path d="M116.887 60.0161H116.164V65.1215H116.887V60.0161Z" fill="white"/>
<path d="M116.543 58.0625C116.243 58.0625 116.011 58.2963 116.011 58.5927C116.011 58.8723 116.243 59.1061 116.543 59.1061C116.808 59.1061 117.045 58.8723 117.045 58.5927C117.045 58.2963 116.808 58.0625 116.543 58.0625Z" fill="white"/>
<path d="M120.606 59.9118C119.92 59.9118 119.434 60.2499 119.077 60.6423V60.0203H118.354V67H119.077V64.5496C119.434 64.9545 119.871 65.2259 120.51 65.2259C121.574 65.2259 122.426 64.2908 122.426 62.4874C122.426 60.684 121.62 59.9118 120.606 59.9118ZM120.452 64.5955C119.854 64.5955 119.359 64.2532 119.077 63.8274V61.281C119.434 60.8385 119.883 60.5421 120.423 60.5421C121.229 60.5421 121.715 61.2142 121.715 62.4958C121.715 63.865 121.3 64.5955 120.452 64.5955Z" fill="white"/>
<path d="M126.269 59.0059H129.494V58.3171H125.513V65.1215H126.269V61.9489H128.127V61.2643H126.269V59.0059Z" fill="white"/>
<path d="M131.7 59.9118C130.466 59.9118 129.473 60.8385 129.473 62.5751C129.473 64.3116 130.424 65.2259 131.658 65.2259C132.892 65.2259 133.885 64.2657 133.885 62.5333C133.885 60.8009 132.938 59.9118 131.7 59.9118ZM131.679 64.5955C130.798 64.5955 130.208 63.8984 130.208 62.5542C130.208 61.21 130.798 60.5421 131.679 60.5421C132.56 60.5421 133.162 61.2142 133.162 62.5542C133.162 63.8942 132.564 64.5955 131.679 64.5955Z" fill="white"/>
<path d="M137.895 62.9967C137.895 64.1155 137.346 64.5913 136.64 64.5913C135.826 64.5913 135.439 64.0988 135.439 62.9967V60.0161H134.712V63.1261C134.712 64.5955 135.419 65.2259 136.495 65.2259C137.126 65.2259 137.6 64.9295 137.891 64.4995V65.1215H138.618V60.0161H137.891V62.9967H137.895Z" fill="white"/>
<path d="M141.967 59.9118C141.331 59.9118 140.857 60.2082 140.562 60.6423V60.0203H139.835V65.1257H140.562V62.1409C140.562 61.0222 141.115 60.5463 141.821 60.5463C142.636 60.5463 143.022 61.0389 143.022 62.1409V65.1257H143.745V62.0115C143.745 60.5463 143.039 59.9159 141.963 59.9159L141.967 59.9118Z" fill="white"/>
<path d="M148.116 60.5922C147.759 60.1831 147.322 59.9118 146.683 59.9118C145.619 59.9118 144.767 60.8385 144.767 62.6544C144.767 64.4703 145.569 65.2259 146.587 65.2259C147.273 65.2259 147.755 64.8919 148.116 64.4995V65.1215H148.843V58.242H148.116V60.5964V60.5922ZM148.116 63.8525C147.759 64.2991 147.31 64.5913 146.77 64.5913C145.968 64.5913 145.482 63.9234 145.482 62.6377C145.482 61.2643 145.897 60.538 146.741 60.538C147.343 60.538 147.829 60.8761 148.116 61.3061V63.8525Z" fill="white"/>
<path d="M151.922 59.9118C151.261 59.9118 150.663 60.0788 150.219 60.3209L150.489 60.9178C150.908 60.6715 151.345 60.5254 151.872 60.5254C152.616 60.5254 152.973 60.8969 152.973 61.6483V62.2578C152.674 62.0867 152.217 61.9614 151.706 61.9614C150.705 61.9614 149.761 62.4498 149.761 63.5978C149.761 64.8335 150.597 65.2259 151.39 65.2259C152.117 65.2259 152.616 64.8919 152.973 64.4995V65.1215H153.7V61.5649C153.7 60.3751 153.015 59.9118 151.922 59.9118ZM152.973 63.865C152.666 64.2908 152.171 64.6331 151.511 64.6331C150.896 64.6331 150.48 64.2991 150.48 63.5435C150.48 62.9007 150.925 62.5417 151.669 62.5417C152.288 62.5417 152.645 62.6502 152.973 62.8339V63.865Z" fill="white"/>
<path d="M156.015 58.242H155.288V60.0203H154.66V60.634H155.288V64.0779C155.288 64.9211 155.628 65.23 156.26 65.23C156.642 65.23 156.912 65.1758 157.195 65.0547L157.245 64.4244C157.012 64.5204 156.821 64.5705 156.526 64.5705C156.139 64.5705 156.015 64.416 156.015 63.9568V60.634H157.274V60.0203H156.015V58.242Z" fill="white"/>
<path d="M158.919 58.0625C158.62 58.0625 158.383 58.2963 158.383 58.5927C158.383 58.8723 158.62 59.1061 158.919 59.1061C159.193 59.1061 159.426 58.8723 159.426 58.5927C159.426 58.2963 159.193 58.0625 158.919 58.0625Z" fill="white"/>
<path d="M159.264 60.0161H158.541V65.1215H159.264V60.0161Z" fill="white"/>
<path d="M162.588 59.9118C161.354 59.9118 160.365 60.8385 160.365 62.5751C160.365 64.3116 161.312 65.2259 162.55 65.2259C163.788 65.2259 164.773 64.2657 164.773 62.5333C164.773 60.8009 163.826 59.9118 162.588 59.9118ZM162.567 64.5955C161.69 64.5955 161.1 63.8984 161.1 62.5542C161.1 61.21 161.69 60.5421 162.567 60.5421C163.444 60.5421 164.05 61.2142 164.05 62.5542C164.05 63.8942 163.452 64.5955 162.567 64.5955Z" fill="white"/>
<path d="M167.948 59.9118C167.308 59.9118 166.834 60.2082 166.543 60.6423V60.0203H165.816V65.1257H166.543V62.1409C166.543 61.0222 167.096 60.5463 167.802 60.5463C168.621 60.5463 169.003 61.0389 169.003 62.1409V65.1257H169.726V62.0115C169.726 60.5463 169.02 59.9159 167.948 59.9159V59.9118Z" fill="white"/>
<path d="M92.9755 11.3253L87.3954 9.0043L92.9755 6.6833L91.9825 4.27882L86.4024 6.59981L88.7167 0.99352L86.3234 0L84.0133 5.60629L81.699 0L79.3099 0.99352L81.62 6.59981L76.0399 4.27882L75.051 6.6833L80.627 9.0043L75.051 11.3253L76.0399 13.7298L81.62 11.4046L79.3099 17.0109L81.7031 18.0086L84.0133 12.4023L86.3234 18.0086L88.7167 17.0109L86.4024 11.4046L91.9825 13.7298L92.9755 11.3253Z" fill="white"/>
<path d="M56.8565 26.9753H60.5711V17.0109H47.8777V20.3672H56.8565V26.9753Z" fill="white"/>
<path d="M71.3407 26.9753H75.0511V17.0109H62.3577V20.3672H71.3407V26.9753Z" fill="white"/>
<path d="M47.2793 32.1266H71.3407V37.257H75.051V28.7703H47.2793V32.1266Z" fill="white"/>
<path d="M56.2581 52.9321H75.0468V38.9852H56.2581V52.9321ZM59.9726 42.3415H71.3406V49.5758H59.9726V42.3415Z" fill="white"/>
</g>
<defs>
<clipPath id="clip0_13_286">
<rect width="173" height="67" fill="white"/>
</clipPath>
</defs>
</svg>
