<svg width="19" height="19" viewBox="0 0 19 19" fill="none" xmlns="http://www.w3.org/2000/svg">
<mask id="mask0_24_1948" style="mask-type:alpha" maskUnits="userSpaceOnUse" x="0" y="0" width="19" height="19">
<rect width="19" height="19" fill="#D9D9D9"/>
</mask>
<g mask="url(#mask0_24_1948)">
<path d="M10.3161 9.50008L7.88172 11.9345L8.70842 12.7809L11.9893 9.50008L8.70842 6.21922L7.88172 7.06571L10.3161 9.50008ZM9.50147 17.0209C8.46122 17.0209 7.48344 16.8235 6.56814 16.4287C5.65285 16.034 4.85669 15.4982 4.17969 14.8215C3.50268 14.1447 2.96665 13.3489 2.57161 12.434C2.1767 11.5191 1.97925 10.5416 1.97925 9.50147C1.97925 8.46122 2.17664 7.48344 2.57141 6.56814C2.96619 5.65285 3.50195 4.85669 4.1787 4.17969C4.85544 3.50268 5.65126 2.96665 6.56616 2.57161C7.48107 2.1767 8.45858 1.97925 9.4987 1.97925C10.5389 1.97925 11.5167 2.17664 12.432 2.57141C13.3473 2.96619 14.1435 3.50195 14.8205 4.1787C15.4975 4.85544 16.0335 5.65126 16.4286 6.56616C16.8235 7.48107 17.0209 8.45858 17.0209 9.4987C17.0209 10.5389 16.8235 11.5167 16.4287 12.432C16.034 13.3473 15.4982 14.1435 14.8215 14.8205C14.1447 15.4975 13.3489 16.0335 12.434 16.4286C11.5191 16.8235 10.5416 17.0209 9.50147 17.0209ZM9.50008 15.8334C11.2681 15.8334 12.7657 15.2199 13.9928 13.9928C15.2199 12.7657 15.8334 11.2681 15.8334 9.50008C15.8334 7.73203 15.2199 6.23446 13.9928 5.00737C12.7657 3.78029 11.2681 3.16675 9.50008 3.16675C7.73203 3.16675 6.23446 3.78029 5.00737 5.00737C3.78029 6.23446 3.16675 7.73203 3.16675 9.50008C3.16675 11.2681 3.78029 12.7657 5.00737 13.9928C6.23446 15.2199 7.73203 15.8334 9.50008 15.8334Z" fill="white"/>
</g>
</svg>
